HIERARCHY
ROOT Hips
{
    OFFSET 0.000000 0.000000 0.000000
    CHANNELS 6 Xposition Yposition Zposition Zrotation Xrotation Yrotation
    JOINT Spine
    {
        OFFSET -0.000000 14.517291 0.000000
        CHANNELS 3 Zrotation Xrotation Yrotation
        JOINT Spine1
        {
            OFFSET -0.000000 37.558300 0.000000
            CHANNELS 3 Zrotation Xrotation Yrotation
            JOINT Neck
            {
                OFFSET -0.000000 37.404057 3.400369
                CHANNELS 3 Zrotation Xrotation Yrotation
                JOINT Head
                {
                    OFFSET -0.000000 24.785618 -3.540803
                    CHANNELS 3 Zrotation Xrotation Yrotation
                    End Site
                    {
                        OFFSET -0.000000 35.408028 0.000000
                    }
                }
            }
            JOINT LeftShoulder
            {
                OFFSET 6.992933 33.973492 -0.192664
                CHANNELS 3 Zrotation Xrotation Yrotation
                JOINT LeftArm
                {
                    OFFSET 21.527611 0.000000 0.000000
                    CHANNELS 3 Zrotation Xrotation Yrotation
                    JOINT LeftForeArm
                    {
                        OFFSET 56.353916 0.000000 0.000000
                        CHANNELS 3 Zrotation Xrotation Yrotation
                        JOINT LeftHand
                        {
                            OFFSET 47.774071 0.000000 0.000000
                            CHANNELS 3 Zrotation Xrotation Yrotation
                            End Site
                            {
                                OFFSET 26.556021 0.000000 0.000000
                            }
                        }
                    }
                }
            }
            JOINT RightShoulder
            {
                OFFSET -7.065357 33.973492 -0.192664
                CHANNELS 3 Zrotation Xrotation Yrotation
                JOINT RightArm
                {
                    OFFSET -21.527611 0.000000 0.000000
                    CHANNELS 3 Zrotation Xrotation Yrotation
                    JOINT RightForeArm
                    {
                        OFFSET -56.353916 0.000000 0.000000
                        CHANNELS 3 Zrotation Xrotation Yrotation
                        JOINT RightHand
                        {
                            OFFSET -47.774071 0.000000 0.000000
                            CHANNELS 3 Zrotation Xrotation Yrotation
                            End Site
                            {
                                OFFSET -26.556021 0.000000 0.000000
                            }
                        }
                    }
                }
            }
        }
    }
    JOINT LeftUpLeg
    {
        OFFSET 17.704014 0.000000 0.000000
        CHANNELS 3 Zrotation Xrotation Yrotation
        JOINT LeftLeg
        {
            OFFSET -0.000000 -81.181816 0.000000
            CHANNELS 3 Zrotation Xrotation Yrotation
            JOINT LeftFoot
            {
                OFFSET -0.000000 -62.821102 0.000000
                CHANNELS 3 Zrotation Xrotation Yrotation
                JOINT LeftToeBase
                {
                    OFFSET -0.000000 -11.507608 26.556021
                    CHANNELS 3 Zrotation Xrotation Yrotation
                    End Site
                    {
                        OFFSET -0.000000 0.000000 7.081605
                    }
                }
            }
        }
    }
    JOINT RightUpLeg
    {
        OFFSET -17.704014 0.000000 0.000000
        CHANNELS 3 Zrotation Xrotation Yrotation
        JOINT RightLeg
        {
            OFFSET -0.000000 -81.181816 0.000000
            CHANNELS 3 Zrotation Xrotation Yrotation
            JOINT RightFoot
            {
                OFFSET -0.000000 -62.821102 0.000000
                CHANNELS 3 Zrotation Xrotation Yrotation
                JOINT RightToeBase
                {
                    OFFSET -0.000000 -11.507608 26.556021
                    CHANNELS 3 Zrotation Xrotation Yrotation
                    End Site
                    {
                        OFFSET -0.000000 0.000000 7.081605
                    }
                }
            }
        }
    }
}
MOTION
Frames:    5
Frame Time:    0.008333
3.433523    156.120758    -31.936401    -0.754076    -3.451460    -26.918695    2.089936    -0.585207    1.731634    -0.624265    0.189554    0.574025    11.966020    0.132117    10.811239    -4.164281    3.059208    9.002934    1.723360    8.511246    -13.299148    -31.562920    27.719078    -51.524952    -2.448967    -17.691235    -84.635201    -22.243658    -15.736697    -21.462345    -4.107384    6.606045    -2.726755    38.240566    13.095403    72.478477    2.342621    -12.620514    101.752907    6.140069    -14.735538    13.072997    14.339202    -19.288864    -1.736113    -13.352250    18.214903    6.893476    -5.221206    4.216433    22.432058    0.000000    0.000000    0.000000    -11.418229    7.010570    -3.471866    7.979363    24.942253    0.877922    2.074895    -24.844671    -21.346416    0.000000    0.000000    0.000000    
3.428928    156.127136    -31.945509    -0.759214    -3.452594    -26.912048    2.092752    -0.597049    1.732253    -0.624367    0.199067    0.574128    11.964810    0.137331    10.807014    -4.155797    3.057155    9.000171    1.713479    8.507611    -13.289377    -31.583519    27.720654    -51.511814    -2.486872    -17.648619    -84.649467    -22.209669    -15.732712    -21.468479    -4.106015    6.610195    -2.717020    38.262722    13.080690    72.471176    2.352110    -12.605626    101.757462    6.141786    -14.732748    13.062433    14.342090    -19.281637    -1.741621    -13.344958    18.197428    6.896327    -5.240765    4.229265    22.423367    0.000000    0.000000    0.000000    -11.407089    7.024463    -3.456809    7.982153    24.915119    0.879459    2.062459    -24.835506    -21.365616    0.000000    0.000000    0.000000    
3.421868    156.132904    -31.951956    -0.766191    -3.454003    -26.899530    2.094508    -0.609213    1.732372    -0.618551    0.211928    0.574252    11.952441    0.124157    10.801677    -4.137408    3.070961    8.997660    1.706766    8.499020    -13.291098    -31.614679    27.721449    -51.487034    -2.515440    -17.612320    -84.669670    -22.223070    -15.717649    -21.477076    -4.110221    6.600527    -2.727960    38.260693    13.089938    72.469879    2.345644    -12.612251    101.765915    6.150067    -14.730283    13.079422    14.341211    -19.275303    -1.762431    -13.334130    18.180716    6.915938    -5.241899    4.247168    22.403873    0.000000    0.000000    0.000000    -11.394294    7.042225    -3.441855    7.988797    24.888035    0.874870    2.033258    -24.822697    -21.388281    0.000000    0.000000    0.000000    
3.418881    156.137756    -31.960566    -0.769256    -3.451978    -26.888765    2.101643    -0.613941    1.731140    -0.623674    0.203559    0.573731    11.939002    0.130577    10.792016    -4.113184    3.076146    8.993252    1.715139    8.507729    -13.283576    -31.621313    27.734055    -51.490295    -2.534117    -17.608742    -84.690102    -22.227007    -15.729669    -21.481155    -4.105461    6.608712    -2.731762    38.253349    13.089149    72.480568    2.334548    -12.621881    101.766273    6.153875    -14.726380    13.076319    14.339459    -19.274925    -1.757423    -13.316188    18.170671    6.901468    -5.258584    4.257859    22.399681    0.000000    0.000000    0.000000    -11.383454    7.046688    -3.437686    7.995698    24.875393    0.858003    2.023249    -24.811676    -21.392206    0.000000    0.000000    0.000000    
3.412317    156.142517    -31.966627    -0.779725    -3.454713    -26.883373    2.112766    -0.622511    1.728780    -0.631496    0.214912    0.572904    11.943888    0.145877    10.789801    -4.113698    3.051738    8.990901    1.720365    8.504795    -13.283161    -31.632305    27.737116    -51.471863    -2.538731    -17.592850    -84.714401    -22.211798    -15.725830    -21.458948    -4.098405    6.597363    -2.726150    38.234478    13.102315    72.482231    2.328210    -12.647136    101.772881    6.169261    -14.741949    13.088015    14.347094    -19.267435    -1.770410    -13.317856    18.160402    6.894777    -5.255076    4.264687    22.424246    0.000000    0.000000    0.000000    -11.367254    7.061338    -3.422645    7.994376    24.857428    0.874282    1.999705    -24.799805    -21.431339    0.000000    0.000000    0.000000    
